<svg xmlns="http://www.w3.org/2000/svg" xmlns:xlink="http://www.w3.org/1999/xlink" x="0px" y="0px" viewBox="0 0 625.9 246" enable-background="new 0 0 625.9 246" xml:space="preserve">
  <g>
    <g>
      <path fill="#FFFFFF" d="M414.1 107.6c0-58.3 47.2-105.5 105.5-105.5 58.3 0 105.5 47.2 105.5 105.5 0 58.3-47.2 105.5-105.5 105.5C461.3 213.2 414.1 165.9 414.1 107.6z"/>
      <path fill="#CBCACA" d="M563.6 201.5l6-17.9 35.1-31.5 6.4 6.4c0 0-11.2 18.1-20.3 25.8C581.7 191.9 563.6 201.5 563.6 201.5z"/>
      <path fill="#CBCACA" d="M439.5 175.2l42.4 21.5 7.5-6.3 -10.7-18.7 27.2 16.7 7.4 24.6c0 0-28.9-2.2-50.2-15.6C441.9 184.1 439.5 175.2 439.5 175.2z"/>
      <polygon fill="#CBCACA" points="417.9 119.4 439.1 93.4 452.8 59.5 442.6 100 423.6 120.8 "/>
      <polygon fill="#CBCACA" points="444.5 97.1 478.7 117.5 508.8 104 519.4 63.8 515.4 107.6 474.6 125.1 "/>
      <polygon fill="#CBCACA" points="478.7 170.6 504.1 182.1 539.5 168.5 547.9 133.3 547.5 173.6 508 190.4 "/>
      <polygon fill="#CBCACA" points="496.9 41.6 520.6 58.2 559.4 59.7 568.9 38.7 562 64.3 519.6 62.7 "/>
      <polygon fill="#CBCACA" points="549.9 134.3 558.5 166 572.3 169.3 596.2 149.2 603.7 116.1 603.7 154.2 568.9 184.3 547.5 171.7 "/>
      <path fill="#030104" d="M550.6 4.4C494.6-12.4 435 20.2 417.9 77.1 400.8 134 432.5 194 488.6 210.9c56.1 16.9 115.6-15.7 132.7-72.6C638.4 81.3 606.7 21.3 550.6 4.4zM602.3 46.2c8.9 12.3 15 26.6 17.8 41.8l-16 26.2 -22.9-8.6 0.1-0.1 -17.9-42.2 7.2-23 0 0L602.3 46.2zM547.9 133.3l-2.4 37.7 -41 15.4 -25.9-15.8 -1.3-45.4 36.2-16.4L547.9 133.3zM522.1 92.3c0.1-2.1 0.2-4.3 0.3-6.4 0.1-2.1 0.3-4.3 0.4-6.4 0.3-4.3 0.6-8.5 1-12.8l0.1-0.7 0.7 0c5.5 0.4 10.9 0.8 16.4 1.3l8.2 0.8 4.1 0.5c1.4 0.2 2.7 0.3 4.1 0.5 -1.4 0-2.7 0-4.1-0.1L549 69l-8.2-0.4c-5.2-0.3-10.5-0.6-15.7-1.1 -0.4 4-0.8 8.1-1.3 12.1 -0.3 2.1-0.5 4.2-0.8 6.4C522.7 88.1 522.4 90.2 522.1 92.3zM549.9 134.3l29.5-27.3 24.2 9.1 -1.6 37.7 -30.3 27.8 -24.2-9.9L549.9 134.3zM551.6 11.4c0.9 0.1 1.7 0.3 2.5 0.5l2.5 0.7c0.8 0.2 1.6 0.6 2.4 0.8 0.8 0.3 1.6 0.6 2.4 0.9 1.6 0.7 3.1 1.4 4.6 2.2 1.5 0.8 3 1.7 4.5 2.5 0.7 0.4 1.5 0.8 2.2 1.3l2.1 1.4c1.4 1 2.8 1.9 4.2 2.9 0.7 0.5 1.3 1.1 2 1.6 0.7 0.5 1.3 1.1 2 1.6 1.3 1.1 2.6 2.2 3.9 3.3 -1.4-0.9-2.8-1.9-4.2-2.8 -1.4-0.9-2.8-1.9-4.2-2.9 -1.4-0.9-2.9-1.8-4.3-2.7l-2.1-1.4c-0.7-0.5-1.5-0.8-2.2-1.3l-4.4-2.5c-1.5-0.7-3-1.5-4.5-2.2 -0.8-0.4-1.5-0.6-2.3-1 -0.8-0.3-1.5-0.7-2.3-1l-2.4-0.8c-0.7-0.2-1.4-0.4-2.1-0.6 -0.1 1.6-0.2 3.3-0.3 4.9 -0.1-1.8-0.2-3.5-0.3-5.3l0-0.4L551.6 11.4zM568.9 38.7l-7.6 24.2 -41.6-1.8 0 0.2 -22.8-19.7 1.9-22.9 45.2-2.5L568.9 38.7zM546 7.4l-2 6.7 -48.7 2.7L483.9 11C503.2 3.5 524.8 1.9 546 7.4zM463 25.4l1.2-1.2 1.2-1.1 1.2-1.1 1.3-1c0.9-0.7 1.7-1.3 2.7-1.9 0.9-0.6 1.8-1.2 2.8-1.7 1-0.5 1.9-1 2.9-1.5l1.5-0.7 1.5-0.6 3.1-1.1 0.3-0.1 0.3 0.2c1.6 1.2 3.2 2.4 4.8 3.6 1.6 1.2 3.2 2.4 4.7 3.7 -1.8-1-3.5-2-5.2-3 -1.6-1-3.2-2-4.8-3l-2.7 1.1 -1.5 0.6 -1.4 0.7c-0.9 0.5-1.9 0.9-2.9 1.4 -0.9 0.5-1.8 1.1-2.8 1.6 -0.9 0.5-1.8 1.1-2.7 1.7l-1.3 0.9 -1.3 0.9c-0.9 0.6-1.7 1.3-2.6 1.9 -0.9 0.6-1.7 1.3-2.5 2C461.4 27 462.2 26.2 463 25.4zM496.4 43.9l23 19.9 -5.8 42.9 -36.4 16.4 -33.1-26.3L455 59.3 496.4 43.9zM471.5 124.9c-1.3-0.9-2.5-1.8-3.8-2.6 -1.3-0.9-2.5-1.8-3.7-2.7 -2.5-1.8-4.9-3.7-7.3-5.5 -2.4-1.9-4.8-3.8-7.2-5.7 -2.3-1.8-4.5-3.7-6.7-5.6 -1 1-2 2-3.1 3 -1.1 1.1-2.3 2.2-3.5 3.2 1-1.2 2-2.4 3-3.6 1-1.2 2.1-2.4 3.1-3.6l0.3-0.3 0.4 0.3c2.5 1.8 4.9 3.7 7.3 5.5 2.4 1.9 4.8 3.8 7.2 5.7 2.4 1.9 4.7 3.9 7.1 5.9 1.2 1 2.3 2 3.5 3C469.2 122.9 470.3 123.9 471.5 124.9zM421.8 78.3c3.8-12.8 9.9-24.2 17.6-34.1l13.4 15.4 -10.7 35.7 -21 23.7 -3.2 0.4C416.5 105.9 417.7 92 421.8 78.3zM418.2 121.4l2.6-0.3 19.8 46.8 -1.7 3.8C427.7 157.2 420.5 139.8 418.2 121.4zM489.8 206.9c-20.2-6.1-37.1-18-49.5-33.4l2.2-4.8 35.5 3.8 25.6 15.7 6.7 22.6C503.4 210.3 496.6 209 489.8 206.9zM560.3 182.6c-1.6-0.6-3.3-1.2-4.9-1.8 -3.2-1.2-6.3-2.4-9.4-3.6 -5.5 2.2-11.1 4.4-16.7 6.4 -2.8 1.1-5.7 2-8.5 3.1 -2.8 1-5.7 2-8.6 2.9 2.8-1.3 5.5-2.5 8.3-3.7 2.8-1.2 5.6-2.4 8.4-3.5 5.6-2.3 11.2-4.5 16.9-6.6l0.3-0.1 0.2 0.1c3.2 1.3 6.4 2.7 9.5 4.1 1.6 0.7 3.2 1.4 4.7 2.1 1.6 0.7 3.1 1.4 4.7 2.2C563.6 183.7 561.9 183.2 560.3 182.6zM565.8 199.5l6.4-15.5 31.2-28.6 5.1 2.5C598.5 176 583.4 190.3 565.8 199.5zM620.4 103.1c-0.1-0.9-0.3-1.7-0.4-2.6 -0.2-1-0.3-2.1-0.4-3.1 -1.4 2.9-2.9 5.8-4.4 8.6 -0.9 1.7-1.9 3.4-2.9 5.1 -1 1.7-2 3.4-3.1 5 0.7-1.8 1.5-3.6 2.3-5.4 0.8-1.8 1.6-3.6 2.5-5.3 1.7-3.5 3.5-7 5.4-10.4l1-1.9 0.1 2.1c0.1 1.7 0.2 3.4 0.2 5.2 0 0.9 0 1.7 0 2.6 0 0.9 0 1.7 0 2.6C620.6 104.8 620.5 104 620.4 103.1z"/>
      <polygon fill="#CBCACA" points="572.3 84.4 583.5 103.1 602.5 109.1 620.1 87.9 606.4 115.6 578.6 105.7 "/>
    </g>
    <g>
      <path fill="#DA9330" d="M422.9 56.3c0 0-89.4 113-252.8 135.4 0 0 120.6 2.2 239.4-67.7C409.4 124 404.6 88.4 422.9 56.3z"/>
      <path fill="#EBE345" d="M413.3 79.6c0 0-86.9 76-136.5 89.4 0 0 75.4-19.6 132.2-51.1C408.9 118 407.9 98.3 413.3 79.6z"/>
      <path fill="#F1F1F0" d="M410.7 91.3L345 139.5l58.7-30.5 -9.1 10 14.3-8.1C408.9 110.8 409.7 96.3 410.7 91.3z"/>
      <path fill="#DA9330" d="M410.2 136.4c0 0-178.3 105.2-410.2 40.8 0 0 153.2 89.5 445.2 17.9C445.2 195.1 414.9 164.8 410.2 136.4z"/>
      <path fill="#EBE345" d="M413.3 147.6c0 0-159.2 75.4-315.2 53.9 0 0 103.7 42.4 341-13.1C439 188.4 416.7 158.7 413.3 147.6z"/>
      <path fill="#F1F1F0" d="M415.8 153.5l-46.5 20h40.9c0 0-98.8 26.8-180.5 32.9 0 0 89.4 3.6 203.3-26.4C433 180.1 422.7 165 415.8 153.5z"/>
      <path fill="#DA9330" d="M454.5 201.5c0 0-187.5 61.6-410.1 5.1 0 0 173.9 76.4 486 16.2C530.3 222.8 486.7 225.8 454.5 201.5z"/>
      <path fill="#EBE345" d="M460.5 205.7c0 0-129.7 36.4-228.8 30.9 0 0 172.9 9.9 266.8-16.3C498.5 220.2 479.6 215.3 460.5 205.7z"/>
      <path fill="#F1F1F0" d="M465.1 207.9l-16.4 5.5 13.1 1.7c0 0-39.6 10.5-74.2 13.9 0 0 73.3-3.3 100.3-12C487.9 217 479.6 214.4 465.1 207.9z"/>
    </g>
    <radialGradient id="SVGID_1_" cx="412.6063" cy="129.6469" r="257.3551" gradientTransform="matrix(1 0 0 0.5298 0 60.9642)" gradientUnits="userSpaceOnUse">
      <stop offset="0" stop-color="#FFFFFF"/>
      <stop offset="1" stop-color="#000000"/>
    </radialGradient>
    <path opacity="0.7" fill="url(#SVGID_1_)" d="M170 191.7C333.5 169.3 422.9 56.3 422.9 56.3c-4.4 7.8-7.5 15.8-9.6 23.4 -0.1 0.3-0.2 0.6-0.2 0.8 -1.2 4.5-2.1 8.8-2.7 12.8 -0.8 6.1-1.4 17.4-1.4 17.4l0 0c-0.1 2.6 0 4.6 0 5.8 0 0.5 0 0.9 0 1.3 0 0 0 0 0 0l0 0c0.2 3.8 0.5 6 0.5 6C290.6 193.9 170 191.7 170 191.7zM445.2 195.1c0 0-2.5-2.5-6.1-6.7 0-0.1-2.6-3.4-6-8.3 -0.4-0.5-10-14.7-16.8-25.9 -0.6-1-1.1-2-1.5-3 -2.1-4.9-3.7-9.9-4.5-14.9 0 0-178.3 105.2-410.2 40.8C0 177.2 153.2 266.6 445.2 195.1zM498.5 220.2c-0.2 0-6.5-1.7-15.4-4.9 -3.9-1.4-10-3.8-17.9-7.4l0 0c-1.5-0.7-3.1-1.5-4.6-2.3 -2-1.3-4.1-2.7-6-4.2 0 0-187.5 61.6-410.1 5.1 0 0 173.9 76.4 486 16.2C530.3 222.8 516.4 223.8 498.5 220.2z"/>
  </g>
</svg>
