<svg xmlns="http://www.w3.org/2000/svg" xmlns:xlink="http://www.w3.org/1999/xlink" x="0px" y="0px" viewBox="0 0 800 800" enable-background="new 0 0 800 800" xml:space="preserve">
  <g>
    <defs>
      <rect id="SVGID_1_" width="800" height="800"/>
    </defs>
    <clipPath id="SVGID_2_">
      <use xlink:href="#SVGID_1_" overflow="visible"/>
    </clipPath>
    <linearGradient id="SVGID_3_" gradientUnits="userSpaceOnUse" x1="448.6222" y1="817.5694" x2="596.2627" y2="-19.7417">
      <stop offset="0" stop-color="#BFDCBD"/>
      <stop offset="0.4916" stop-color="#A8C59D"/>
      <stop offset="1" stop-color="#8EAB77"/>
    </linearGradient>
    <path opacity="0.7" clip-path="url(#SVGID_2_)" fill="url(#SVGID_3_)" d="M884.8 154.3c-5.3 18.1-26.7 20.7-42.2 16.7 -17.6-4.5-33.5-15.4-48.4-25.3 -9.7-6.4-20-13.8-30.6-19.3 1.6-1 46.8-46.9 46.4-48.7 -0.2-0.7 2.7-10.3-6.3-2.8 -13.5 11.4-41.7 42-51.5 43.3 -18.5 2.3-27.5-2.7-45.5-7.6 -14.9-4.1-29.6-10.5-45.1-9.4 -0.9-3.5-2.9-7.1-6-10.6 -10.3-11.5-30.5-11.8-44.4-15.6 -2.7-0.7-6-1.8-9.3-3.3 -10-5-12.6-9.6-12.6-9.6 -1.8-3.4-1.6-7.3 2.4-11.7 8.3-9.3 20.6-15.3 31.3-21.4 11.1-6.3 36.8-20.8 46.6-29 4.3-3.7-1.9-9.8-6.2-6.2 -20.4 17.1-66.2 32.5-81.6 55.2 -2.2 3.2-3.3 6.2-3.6 8.9 -2.4-1.3-4.7-3-7-4.9 -6.8-5.8-13-12-20.7-16.6 -3.7-2.3-7.6-4.1-11.6-5.5 -0.4-0.7-0.8-1.3-1.2-2 2.8-2.1 1.7-6.9-1.6-7.8 0.1-12.5 10.6-27.4 18.4-34.8 4.1-3.9-2.1-10.1-6.2-6.2 -10.3 9.8-21.1 27.3-20.8 42.5 -10.7 2.2-21.7 2.6-32.4 0.5 -12.1-2.4-20.3-10.7-30.4-16.9 -19.6-12-40.1 0.4-55.2 14.9 -4.1 3.9-4.4 7.9-0.3 4 9.8-9.4 21.8-14.7 35.5-14.8C457.8 10 465 18 475.2 24.3c5.4 3.3 11.2 5.6 17.2 7 -5.2 1.9-10.2 4.4-14.9 7.4 -20 13.1-29 35.9-42.3 54.7 -15.9 22.5-34.9 40.3-60.5 51.2 -2.7 1.1-2.8 3.7-1.5 5.6 -0.2 0.2-0.4 0.3-0.6 0.5 -19.7 3.5-48.7-9.5-72-9.8 -0.4 0.5-0.9 1-1.3 1.5 -2.2 2.7-4.2 5.6-6.3 8.5 10.3-2 22.7 0.8 32.5 2.8 12.4 2.6 26.1 6.7 39.2 6.6 -4.8 7-8.7 14.8-11.8 22 -7.7 17.2-13 35.8-15.6 54.4 -2.5 17.6 2.5 32.4 11.9 47.3 9.9 15.6 23.4 30.2 23.6 49.7 0.1 7.2-3.5 15.2-5.9 21.9 -3.3 9-7 20.4-18.7 18.2 -9.6-1.8-18.3-9.2-26.1-14.6 -6.7-4.6-13.6-9.1-20.7-13 -6.2-3.5-12.8-6.7-19.6-8.8 0.1-1.9-0.8-3.8-3.1-4.4 -19.9-5.7-46.7-8.1-52-32 -3.3-14.7-1.7-31.5 2.8-47.1 -3.3 4.5-7 9.2-11.6 12.7 -2 13.2-1.9 26.5 0.9 39.1 4.1 18.3 20.7 25.6 37.6 30.5 -14.2 4.5-18.7 21.7-19.9 35.2 -2.1 24.8 6.5 49.9 12.2 73.7 1.3 5.5 9.8 3.2 8.5-2.3 -6-24.8-32.3-113 21.4-97.1 15.7 4.6 29.7 14.8 43 23.9 11.4 7.9 31.8 21.7 44.1 7.6 4.7-5.3 7.3-12.6 9.8-19.1 2.6-6.7 5.9-14.7 6.2-22 0.8-18.1-8.6-32.9-18.5-47.2 -11.2-16.2-19.7-31.4-16.9-51.6 2.8-19.5 8.9-39 17.4-56.8 4-8.2 8.7-15.8 14.7-21.8 0 0 0 0 0 0 1.5-0.4 2.4-1.5 2.8-2.6 6.8-5.8 15-9.6 25.3-10.3 21.8-1.4 42.3 8.9 60.4 19.5 11.3 6.6 22.7 12.6 34.8 16.5 -5.5 4-10.5 9.1-15 13.9 -13.7 14.7-27.9 28.7-33.5 48.7 -10.3 37.5 15.8 68.4 23 103.3 1 5 1.3 9.8 0.7 14.2 -5 2.2-8.8 6.4-11.1 12.6 -0.3 0.9-0.5 1.7-0.8 2.6 -1.8 0.7-3.9 1.2-6.2 1.4 -15.5 1.7-31.6-5.9-46.3-9.6 -12.4-3.1-28-5.6-38.9 3 -14.5 11.6-14.5 34.2-12.4 50.9 1.9 15 6.2 29.5 9.7 44.2 3.4 14.7 4.5 29.2 4 44.3 -0.2 5-0.6 10.3-2.8 14.9 -3.1 6.4-11 3.6-16.1 1.6 -17.2-6.5-33-15.9-49.4-24.2 -1.9-0.9-3.8-0.7-5.3 0.7l-0.8 0.7c-2.3 2-1.2 5.3 0.9 6.9 1 0.7 2.1 1 3.1 1.6 1.1 0.7 2.2 0.7 3.2 0.5 9.4 4.9 18.7 9.9 28.2 14.6 9.1 4.5 19.2 9.6 29.4 10.3 4.9 0.3 8.4-1.3 11.1-4 2.2 7.9 7.5 15.4 12.1 21.3 9.7 12.4 21.3 23.1 33.2 33.4 38.5 33.4 76.9 67.2 102.1 112.3 10.9 19.5 18.1 40.3 20.6 62.6 2.2 20.1 1 46.2-17.1 59.1 -4.6 3.3-0.2 10.9 4.4 7.6 27.5-19.7 24.4-60 17.6-89.1 -9.2-39.2-34.1-73.8-61-102.9 -24.2-26.1-52.7-47.3-78.1-72.1 -10.2-10-22.2-22-25.6-36.3 -3.7-15.8 17.1-18.4 27.7-16 15.9 3.6 30.4 13.5 44 22.1 10.9 6.9 22.1 15.6 34.7 19.1 8.9 2.5 14.9 0.8 18.8-3.2 -2.3 6-2.3 13.4-1.4 19.2 3.5 22.7 16.1 38 29 56.2 15 21.1 25.5 45.1 38.3 67.5 12.5 22 24.5 44.6 27.6 70.1 1.2 10.1 1.1 20.7 1.2 30.8 0 4.1 0 26.9-3.6 26.5 -5.6-0.6-5.6 8.2 0 8.8 19.2 2 11.7-52 11.4-62.2 -0.5-22.1-10.4-43.6-20.6-62.8 -12.1-22.9-24.2-46.2-37.5-68.3 -11.8-19.5-29.2-36.4-35.4-58.8 -2.1-7.5-4.3-17.6-0.4-24.9 3.2-6 11.6-3.7 16.6-2.1 28.1 9.2 44.4 43.3 74.6 47.9 13.3 2.1 20-8.7 22-20.4 4-23.5-3.5-48.1-12-69.7 -8.2-20.8-20.3-39-30.2-58.9 -4.9-10-7.9-20.9-5.3-32 3-12.8 15.7-24.8 28.2-28 21-5.2 40.4 17.6 55.1 28.6 15.9 12 35.9 11.7 54.2 5.8 19.1-6.2 35.9-18.5 47.6-34.6 11.8-16.2 14.8-36.4 13.9-56 -0.8-16.5-5.8-32.8-4.6-49.4 1.2-17.3 14.1-25.1 29.9-27.6 5.6-0.9 3.2-9.4-2.3-8.5 -15.9 2.6-29.2 10-34.5 25.9 -5.8 17.3 0.8 37.1 2.4 54.5 2.1 22.7-1.7 44.3-16.6 62.1 -14 16.7-37 28.1-58.7 28.9 -22.8 0.8-37-19.4-54.9-30.5 -15.2-9.5-34-12.3-48.9-0.5 -16.9 13.4-24.2 31.9-18.2 52.8 5.8 20.2 20 37.6 28.8 56.5 11.1 24 20.2 50.2 17.8 76.9 -0.5 6.1-2.6 14.9-10 15.4 -6.7 0.4-13.6-4.3-18.9-7.7 -12.3-7.9-22.6-18.4-34.2-27.2 -10.8-8.2-25.2-17.6-39.4-14.5 -3 0.7-5.3 2-7.2 3.9 5.3-12.9 2-34.5 0-45.5 -3.3-18.3-9.9-34.4-18.3-51 -10.2-20.2-22.8-41.3-22.4-64.6 0-0.6 0-1.1 0.1-1.7 6.5-3.3 10-8.7 11.7-15.1 5.7-0.5 12.1 2 17.2 3.8 13.9 5.1 26.7 12.9 40.7 18 16.2 5.9 35 9.6 50.3-0.5 16.3-10.6 23.5-32.7 24.9-51.1 2.5-33.7-16.5-91 20.5-110.8 0.4 0.1 0.9 0.1 1.4 0 23.2-3 41.7 1.9 61.8 13.4 17.2 9.9 33.3 20.8 53.8 21.1 36.4 0.4 65.4-31.3 63.4-67 -0.3-5.6-9.1-5.7-8.8 0 2.1 36.8-31.9 65-67.9 56.6 -17.9-4.2-33.5-17.8-50-25.7 -15.5-7.4-31.7-9.3-48.5-7.6 28.6-13.4 41.5-49.6 60.2-73.4 13.3-16.9 31.2-23.8 51.4-14 15 7.3 28.4 17.9 42.3 26.9 25.2 16.3 60.2 35.7 87.3 12.7 4.4-3.8 7.2-8.7 8.8-14.2C894.9 151.2 886.4 148.9 884.8 154.3zM475.2 429.3c9.3 20.7 22.4 40.2 27.6 62.6 3.1 13.4 5.7 27.7 5 41.5 -0.2 5.2-1.4 12.4-7 14.3 -5.5 1.8-12.6-2.1-17.4-4.6 -13.9-7.3-26.5-16.8-40.1-24.6 -12.5-7.2-26.6-14.1-41.3-14 -6.5 0-13.3 2.3-18.5 6.5 0 0 0 0 0 0 1.2-22-3.2-42.6-8.5-63.8 -4.8-19.5-13.4-50.3 2.3-67.1 10.5-11.3 31.9-3.2 44.1 0.3 13.9 4 27.7 8.5 42.1 6.1C463.1 401.1 469.5 416.8 475.2 429.3zM494.7 170c-19.4-8.2-36-21.3-56.1-28.1 -10.4-3.5-21.6-5.6-32.5-5 11.1-8.1 21-17.9 29.6-29 14.2-18.4 23.1-41.5 40.6-57.2 16.2-14.6 38.1-18.1 57.6-11.9 0 0 6.9 1.9 12 5.2 3.3 1.9 6.4 4 9.4 6.5 6 5 11.3 10.6 17.9 14.9 3.2 2.1 6.6 3.5 10.1 4.6 12.4 12 43.7 17.3 53.4 20.2 8.3 2.5 15.3 6.5 16 15.2 0 0.4 0 0.8 0 1.2 0 0.3 0 0.5 0 0.8 -0.2 10.8-12.1 19.9-19.8 26 -19.2 15.4-43.1 27-66.1 35.2 -8.3 2.9-16.4 5.2-24.6 6.6 -4.4-1.8-11.4-1.5-13.8-1.5 -2.3 0-12.3 0.6-15.6 1.7C506.9 174.3 500.8 172.6 494.7 170zM607.5 298.2c1 16.5 3.1 33.5 0.1 49.9 -3 16.2-13 34.6-30.2 38.5 -15.4 3.5-34-4.7-47.5-11.2 -12.3-5.9-24.7-13-38.3-15.3 -2-0.3-4-0.5-5.9-0.5 0.4-13.4-4.7-28.8-8.9-39 -10.9-26.4-23.4-52.8-12.9-81.5 5.2-14.3 17.4-24.8 27.3-35.9 6-6.6 13.4-15 22.1-18.9 3.8 0.7 7.6 1.1 11.5 1.3 5.8 0.3 11.6-0.2 17.4-1.1 11.9 5.6 21.7 14.3 32.8 22.6 14.8 11.1 34.2 18.6 52.9 15.9 0.3 0 0.7-0.1 1-0.2C605.3 239.2 605.8 271.4 607.5 298.2zM708 128c-29.6 23.1-35.7 72.1-74.1 85 -20.8 7-42.8-3.9-58.8-16.6 -6.6-5.2-13-10.3-19.8-14.6 12.8-3.5 25.3-8.8 36.7-14.1 16.4-7.5 65.8-31.9 70.1-57.8 16.8-1.6 34.5 7.3 50.4 11.3 1.6 0.4 3.1 0.7 4.7 1.1C714.1 123.8 711 125.6 708 128z"/>
    <g clip-path="url(#SVGID_2_)">
      <radialGradient id="SVGID_4_" cx="386.3569" cy="307.9561" r="169.137" gradientUnits="userSpaceOnUse">
        <stop offset="0" stop-color="#FFFFFF"/>
        <stop offset="0.1822" stop-color="#FAFBFA"/>
        <stop offset="0.3946" stop-color="#ECEFED"/>
        <stop offset="0.6219" stop-color="#D5DBD7"/>
        <stop offset="0.8583" stop-color="#B4BFB9"/>
        <stop offset="1" stop-color="#9DABA3"/>
      </radialGradient>
      <circle fill="url(#SVGID_4_)" cx="386.4" cy="308" r="169.1"/>
      <linearGradient id="SVGID_5_" gradientUnits="userSpaceOnUse" x1="256.787" y1="199.2343" x2="515.9263" y2="416.6779">
        <stop offset="0" style="stop-color:#B9BE95;stop-opacity:0"/>
        <stop offset="0.3714" style="stop-color:#B7BD94;stop-opacity:0.3714"/>
        <stop offset="0.5854" style="stop-color:#AEB98F;stop-opacity:0.5854"/>
        <stop offset="0.7593" style="stop-color:#A0B287;stop-opacity:0.7593"/>
        <stop offset="0.9109" style="stop-color:#8DA97B;stop-opacity:0.9109"/>
        <stop offset="1" stop-color="#7DA272"/>
      </linearGradient>
      <circle fill="url(#SVGID_5_)" cx="386.4" cy="308" r="169.1"/>
      <g>
        <polygon fill="#706F6F" points="340.8 335 319.5 269.3 375.4 228.6 431.3 269.3 410 335 "/>
        <path fill="#1D1D1B" d="M375.4 231.1L429 270l-20.5 63h-66.2l-20.5-63L375.4 231.1M375.4 226.2l-2.4 1.7 -53.6 38.9 -2.4 1.7 0.9 2.8 20.5 63 0.9 2.8h2.9 66.2 2.9l0.9-2.8 20.5-63 0.9-2.8 -2.4-1.7 -53.6-38.9L375.4 226.2 375.4 226.2z"/>
      </g>
      <g>
        <linearGradient id="SVGID_6_" gradientUnits="userSpaceOnUse" x1="328.3647" y1="260.7154" x2="416.1261" y2="322.1665">
          <stop offset="0" style="stop-color:#9D9D9C;stop-opacity:0"/>
          <stop offset="2.101875e-002" style="stop-color:#999998;stop-opacity:2.144223e-002"/>
          <stop offset="0.343" style="stop-color:#646463;stop-opacity:0.3499"/>
          <stop offset="0.6216" style="stop-color:#3D3D3C;stop-opacity:0.6341"/>
          <stop offset="0.8433" style="stop-color:#262624;stop-opacity:0.8603"/>
          <stop offset="0.9803" stop-color="#1D1D1B"/>
        </linearGradient>
        <polygon fill="url(#SVGID_6_)" points="342.3 333 321.8 270 375.4 231.1 429 270 408.5 333 "/>
      </g>
      <g>
        <polygon fill="none" points="342.3 333 321.8 270 375.4 231.1 429 270 408.5 333 "/>
      </g>
      <g>
        <polygon fill="none" points="342.3 333 321.8 270 375.4 231.1 429 270 408.5 333 "/>
      </g>
      <g>
        <path fill="#FFFFFF" d="M408.5 333.1l-8.3 0.2c-2.8 0.1-5.5 0.1-8.3 0.2 -5.5 0.1-11 0.2-16.6 0.3l-16.6 0.2c-5.5 0-11 0.1-16.6 0l0 0c-0.5 0-0.8-0.3-1-0.7l-20.1-63.1 0 0c-0.1-0.3 0-0.5 0.2-0.7l53.9-38.5 0.1 0.2 -53.3 39.3 0.2-0.7 20.9 62.9 -1-0.7c5.5 0 11 0 16.6 0l16.6 0.2c5.5 0 11 0.2 16.6 0.3 2.8 0 5.5 0.1 8.3 0.2l8.3 0.2V333.1z"/>
      </g>
      <g>
        <g>
          <path fill="#706F6F" d="M451.5 457.8c-9.9 0-32.7-12.5-33.6-13l-1.9-1.1 34.2-49 57.4-16.9 0.3 2.3c0.4 3 4 29.3-0.2 37.8 -7.5 15.2-38 38.7-55.4 39.8C452 457.8 451.7 457.8 451.5 457.8z"/>
          <path fill="#1D1D1B" d="M505.8 380.4c0 0 4.1 28.5 0 36.7 -7.3 14.9-37.2 37.7-53.8 38.7 -0.2 0-0.4 0-0.6 0 -9.5 0-32.7-12.8-32.7-12.8l32.5-46.6L505.8 380.4M509.1 375.3l-4.4 1.3 -54.5 16 -1.3 0.4 -0.8 1.2 -32.5 46.6 -2.5 3.6 3.9 2.1c2.5 1.4 24.3 13.3 34.6 13.3 0.3 0 0.5 0 0.8 0 18.4-1.1 49.3-24.9 57.1-40.9 4.4-8.9 1.1-34.1 0.4-39L509.1 375.3 509.1 375.3z"/>
        </g>
        <g>
          <linearGradient id="SVGID_7_" gradientUnits="userSpaceOnUse" x1="240.7237" y1="1222.9172" x2="328.5547" y2="1284.4171" gradientTransform="matrix(0.8118 -0.5839 0.2822 0.3924 -119.1569 96.6407)">
            <stop offset="0" style="stop-color:#9D9D9C;stop-opacity:0"/>
            <stop offset="1.472829e-002" style="stop-color:#999998;stop-opacity:2.144223e-002"/>
            <stop offset="0.2403" style="stop-color:#646463;stop-opacity:0.3499"/>
            <stop offset="0.4356" style="stop-color:#3D3D3C;stop-opacity:0.6341"/>
            <stop offset="0.5909" style="stop-color:#262624;stop-opacity:0.8603"/>
            <stop offset="0.6869" stop-color="#1D1D1B"/>
          </linearGradient>
          <path fill="url(#SVGID_7_)" d="M453.2 455.8c-9.2 0.5-34.4-12.8-34.4-12.8l32.5-46.6 54.5-16c0 0 5.2 28.4 1.2 36.7C499.7 432 469.8 454.8 453.2 455.8z"/>
        </g>
        <g>
          <path fill="none" d="M453.2 455.8c-9.2 0.5-34.4-12.8-34.4-12.8l32.5-46.6 54.5-16c0 0 5.2 28.4 1.2 36.7C499.7 432 469.8 454.8 453.2 455.8z"/>
        </g>
        <g>
          <path fill="none" d="M453.2 455.8c-9.2 0.5-34.4-12.8-34.4-12.8l32.5-46.6 54.5-16c0 0 5.2 28.4 1.2 36.7C499.7 432 469.8 454.8 453.2 455.8z"/>
        </g>
        <g>
          <path fill="#FFFFFF" d="M453.2 455.9c-0.8 0-1.5 0.1-2.3 0 -0.8-0.1-1.6-0.1-2.3-0.3 -0.8-0.2-1.5-0.3-2.3-0.5l-2.3-0.6c-0.7-0.2-1.5-0.5-2.2-0.7 -0.7-0.2-1.5-0.5-2.2-0.7 -1.5-0.5-2.9-1.1-4.4-1.6 -1.4-0.6-2.9-1.1-4.3-1.7 -1.4-0.6-2.8-1.2-4.2-1.9 -2.8-1.3-5.6-2.6-8.4-4 -0.5-0.2-0.7-0.8-0.4-1.3 0 0 0-0.1 0.1-0.1l0 0 4-5.8c1.3-1.9 2.7-3.9 4.1-5.8l8.2-11.6 16.5-23.1 0 0c0.1-0.1 0.2-0.2 0.3-0.2l54.6-15.5 0.1 0.2 -54.3 16.5 0.4-0.3 -16.1 23.4 -8 11.7c-1.3 2-2.7 3.9-4.1 5.8l-4.1 5.8 -0.3-1.4c2.7 1.4 5.4 2.8 8.2 4.2 2.8 1.3 5.5 2.6 8.3 3.9 1.4 0.6 2.8 1.2 4.2 1.8 1.4 0.6 2.9 1.1 4.3 1.6l2.2 0.7c0.7 0.2 1.5 0.4 2.2 0.6 0.7 0.2 1.5 0.3 2.2 0.5 0.7 0.2 1.5 0.1 2.3 0.2L453.2 455.9z"/>
        </g>
      </g>
      <g>
        <g>
          <path fill="#706F6F" d="M313.7 454.1c-0.6 0-1.2 0-1.8-0.1 -16.8-2.6-48.4-28.5-54.5-44.6 -3.3-8.7-5.4-27.8-5.5-28.6l-0.4-3.5 45.4 20.6 36.3 43.6 -1 1.3C331.9 443.1 323.2 454.1 313.7 454.1z"/>
          <path fill="#1D1D1B" d="M253.9 380.5l41.8 18.9 35 42c0 0-8.4 10.7-17 10.7 -0.5 0-1 0-1.5-0.1 -16.4-2.6-47.1-27.9-52.9-43.3C256.1 400.1 253.9 380.5 253.9 380.5M249.1 374l0.8 7c0.1 0.8 2.3 20.2 5.6 29.1 6.4 16.9 38.3 43.1 56 45.9 0.7 0.1 1.4 0.2 2.1 0.2 10.2 0 19.1-11 20.1-12.2l2-2.5 -2.1-2.5 -35-42 -0.6-0.7 -0.8-0.4 -41.8-18.9L249.1 374 249.1 374z"/>
        </g>
        <g>
          <linearGradient id="SVGID_8_" gradientUnits="userSpaceOnUse" x1="165.3432" y1="-362.5739" x2="248.6896" y2="-304.2141" gradientTransform="matrix(0.799 0.6013 -0.2906 0.3861 26.2391 421.4766)">
            <stop offset="0" style="stop-color:#9D9D9C;stop-opacity:0"/>
            <stop offset="1.472829e-002" style="stop-color:#999998;stop-opacity:2.144223e-002"/>
            <stop offset="0.2403" style="stop-color:#646463;stop-opacity:0.3499"/>
            <stop offset="0.4356" style="stop-color:#3D3D3C;stop-opacity:0.6341"/>
            <stop offset="0.5909" style="stop-color:#262624;stop-opacity:0.8603"/>
            <stop offset="0.6869" stop-color="#1D1D1B"/>
          </linearGradient>
          <path fill="url(#SVGID_8_)" d="M259 410.1c-3.2-8.6-5.1-29.6-5.1-29.6l41.8 18.9 35 42c0 0-9.8 13.4-18.8 12C295.5 450.9 264.8 425.6 259 410.1z"/>
        </g>
        <g>
          <path fill="none" d="M259 410.1c-3.2-8.6-5.1-29.6-5.1-29.6l41.8 18.9 35 42c0 0-9.8 13.4-18.8 12C295.5 450.9 264.8 425.6 259 410.1z"/>
        </g>
        <g>
          <path fill="none" d="M259 410.1c-3.2-8.6-5.1-29.6-5.1-29.6l41.8 18.9 35 42c0 0-9.8 13.4-18.8 12C295.5 450.9 264.8 425.6 259 410.1z"/>
        </g>
        <g>
          <path fill="#FFFFFF" d="M258.9 410.1l-0.7-1.8 -0.6-1.8c-0.3-1.2-0.7-2.4-1-3.7 -0.6-2.4-1.1-4.9-1.5-7.4 -0.9-5-1.6-9.9-2.1-14.9 0-0.5 0.3-0.9 0.7-0.9 0.1 0 0.3 0 0.4 0.1l0.1 0c1.8 0.7 3.6 1.4 5.3 2.2 1.8 0.8 3.5 1.6 5.2 2.4l10.3 5 10.3 5 10.3 5 -0.1 0.2 -10.6-4.4 -10.6-4.5 -10.6-4.5c-1.8-0.8-3.5-1.5-5.2-2.3 -1.7-0.8-3.4-1.7-5.2-2.5l1.2-0.8c0.4 5 0.9 10 1.5 14.9 0.2 1.2 0.3 2.5 0.5 3.7 0.2 1.2 0.4 2.5 0.6 3.7 0.2 1.2 0.5 2.5 0.7 3.7l0.4 1.8 0.5 1.8L258.9 410.1z"/>
        </g>
      </g>
      <line fill="none" stroke="#1D1D1B" stroke-width="2" stroke-linejoin="round" stroke-miterlimit="10" x1="379.7" y1="173.6" x2="375.4" y2="229"/>
      <g>
        <g>
          <path fill="#706F6F" d="M229.4 290.1c-0.2-0.4-5.3-10.2-3.6-19.8 2.6-14.7 7.6-36.4 22-54 6.9-8.5 14.7-13 15-13.2l3.3-1.9 -3.5 49.5 -31.6 42.1L229.4 290.1z"/>
          <path fill="#1D1D1B" d="M263.8 204.9l-3.2 45.2 -29.4 39.1c0 0-5-9.5-3.4-18.6 2.8-15.8 7.9-36.3 21.5-53C256.1 209.3 263.8 204.9 263.8 204.9M268.3 197.7l-6.5 3.7c-0.3 0.2-8.4 4.9-15.5 13.6 -14.6 18-19.8 39.9-22.4 54.9 -1.8 10.2 3.6 20.7 3.8 21.1l2.9 5.6 3.8-5.1 29.4-39.1 0.7-0.9 0.1-1.2 3.2-45.2L268.3 197.7 268.3 197.7z"/>
        </g>
        <g>
          <linearGradient id="SVGID_9_" gradientUnits="userSpaceOnUse" x1="-621.7937" y1="-839.054" x2="-562.0486" y2="-797.22" gradientTransform="matrix(-0.3841 0.9233 -0.4462 -0.1856 -345.7052 640.7405)">
            <stop offset="0" style="stop-color:#9D9D9C;stop-opacity:0"/>
            <stop offset="1.472829e-002" style="stop-color:#999998;stop-opacity:2.144223e-002"/>
            <stop offset="0.2403" style="stop-color:#646463;stop-opacity:0.3499"/>
            <stop offset="0.4356" style="stop-color:#3D3D3C;stop-opacity:0.6341"/>
            <stop offset="0.5909" style="stop-color:#262624;stop-opacity:0.8603"/>
            <stop offset="0.6869" stop-color="#1D1D1B"/>
          </linearGradient>
          <path fill="url(#SVGID_9_)" d="M245.7 222.5c8.2-11.9 18.1-17.6 18.1-17.6l-3.2 45.2 -29.4 39.1c0 0-4.5-7.1-3.4-18.6C229.1 257.5 235.1 237.9 245.7 222.5z"/>
        </g>
        <g>
          <path fill="none" d="M244.6 221.1c6.5-6.5 19.2-16.3 19.2-16.3l-3.2 45.2 -29.4 39.1c0 0-8.6-10.3-7.1-19.3C226.7 254.8 232.4 233.4 244.6 221.1z"/>
        </g>
        <g>
          <path fill="none" d="M244.6 221.1c5.9-7 19.2-16.3 19.2-16.3l-3.2 45.2 -29.4 39.1c0 0-7.9-10.2-7.1-19.3C225.9 251.4 233.5 234.3 244.6 221.1z"/>
        </g>
        <g>
          <path fill="#FFFFFF" d="M263.9 204.9c0 1.9-0.1 3.8-0.1 5.7 0 1.9-0.1 3.8-0.2 5.7 -0.1 3.8-0.3 7.5-0.5 11.3 -0.2 3.8-0.4 7.5-0.7 11.3 -0.2 3.8-0.5 7.5-0.8 11.3l0 0c0 0.2-0.1 0.4-0.2 0.5l-15 19.3c-5 6.4-10 12.8-15.1 19.3l-0.2-0.1c4.8-6.6 9.5-13.3 14.3-19.8l14.3-19.8 -0.2 0.5c0.2-3.8 0.5-7.5 0.8-11.3 0.3-3.8 0.6-7.5 0.9-11.3 0.3-3.8 0.7-7.5 1.1-11.3 0.2-1.9 0.4-3.8 0.6-5.6 0.2-1.9 0.4-3.8 0.7-5.6L263.9 204.9z"/>
        </g>
      </g>
      <g>
        <g>
          <path fill="#706F6F" d="M494.6 257.6l6.3-51.4 2.5 1.2c2.2 1 21.4 10.3 26.2 16.3 9.6 12 24.4 46.1 20.2 63.2 -1.9 7.6-15.3 22-15.9 22.6l-1.7 1.8L494.6 257.6z"/>
          <path fill="#1D1D1B" d="M502.5 209.2c0 0 20.8 9.9 25.5 15.7 10.1 12.5 23.7 45.9 19.8 61.5 -1.8 7.2-15.4 21.8-15.4 21.8l-35.7-51.1L502.5 209.2M499.2 203.2l-0.7 5.5 -5.8 47.9 -0.2 1.5 0.9 1.3 35.7 51.1 2.8 4 3.4-3.6c1.5-1.6 14.3-15.5 16.3-23.5 2.6-10.5-1.9-25.9-4.8-34.2 -4.3-12.2-10.3-24-15.8-30.8 -5.1-6.4-24.7-15.8-26.9-16.8L499.2 203.2 499.2 203.2z"/>
        </g>
        <g>
          <linearGradient id="SVGID_10_" gradientUnits="userSpaceOnUse" x1="-406.4929" y1="1792.6803" x2="-328.1089" y2="1847.5654" gradientTransform="matrix(-0.3494 -0.937 0.4528 -0.1689 -430.125 223.9331)">
            <stop offset="0" style="stop-color:#9D9D9C;stop-opacity:0"/>
            <stop offset="1.472829e-002" style="stop-color:#999998;stop-opacity:2.144223e-002"/>
            <stop offset="0.2403" style="stop-color:#646463;stop-opacity:0.3499"/>
            <stop offset="0.4356" style="stop-color:#3D3D3C;stop-opacity:0.6341"/>
            <stop offset="0.5909" style="stop-color:#262624;stop-opacity:0.8603"/>
            <stop offset="0.6869" stop-color="#1D1D1B"/>
          </linearGradient>
          <path fill="url(#SVGID_10_)" d="M547.8 286.4c-1.8 7.2-15.4 21.8-15.4 21.8l-35.7-51.1 5.8-47.9c0 0 20.8 9.9 25.5 15.7C538.1 237.5 551.7 270.8 547.8 286.4z"/>
        </g>
        <g>
          <path fill="none" d="M549.1 285.7c-1.8 7.2-16.7 22.5-16.7 22.5l-35.7-51.1 5.8-47.9c0 0 20.8 9.9 25.5 15.7C538.1 237.5 553 270.1 549.1 285.7z"/>
        </g>
        <g>
          <path fill="none" d="M549.1 285.7c-1.8 7.2-16.7 22.5-16.7 22.5l-35.7-51.1 5.8-47.9c0 0 20.8 9.9 25.5 15.7C538.1 237.5 553 270.1 549.1 285.7z"/>
        </g>
        <g>
          <path fill="#FFFFFF" d="M532.3 308.2c-3.2-4.1-6.4-8.2-9.5-12.4l-4.6-6.3c-1.5-2.1-3.1-4.2-4.6-6.3 -1.5-2.1-3-4.2-4.5-6.4l-4.4-6.4 -8.8-12.9 0 0c-0.1-0.1-0.1-0.3-0.1-0.5l3.2-23.9 3.3-23.9 0.2 0 -2.6 24 -2.6 24 -0.1-0.5 9.1 12.7 4.5 6.3c1.5 2.1 3 4.2 4.5 6.4 1.5 2.1 2.9 4.3 4.4 6.4l4.3 6.5c2.8 4.4 5.7 8.7 8.4 13.1L532.3 308.2z"/>
        </g>
      </g>
      <g>
        <g>
          <path fill="#706F6F" d="M326.2 159.1l3.9-2.5c0.5-0.3 12.8-8.3 20-10.8 7.8-2.8 21.9-4.5 35.9-4.5 9.5 0 26.8 0.8 35.5 6.5 6.2 4.1 10.7 7.7 10.9 7.9l3 2.5 -55.6 14L326.2 159.1z"/>
          <path fill="#1D1D1B" d="M386 143.2c13.9 0 27.6 1.8 34.4 6.2 6.2 4.1 10.7 7.7 10.7 7.7l-51.3 13 -48.6-11.9c0 0 12.5-8.1 19.6-10.6C358.3 144.9 372.2 143.2 386 143.2M386 139.2v4V139.2L386 139.2c-14.2 0-28.6 1.8-36.6 4.7 -7.4 2.6-19.9 10.7-20.4 11l-7.8 5 9 2.2 48.6 11.9 1 0.2 1-0.2 51.3-13 7.7-1.9 -6.1-5c-0.2-0.2-4.7-3.9-11-8C413.4 140.1 395.7 139.2 386 139.2L386 139.2z"/>
        </g>
        <g>
          <linearGradient id="SVGID_11_" gradientUnits="userSpaceOnUse" x1="-737.1689" y1="464.6397" x2="-669.0245" y2="512.355" gradientTransform="matrix(-0.9997 2.240000e-002 -1.080000e-002 -0.4832 -313.9842 407.6269)">
            <stop offset="0" style="stop-color:#9D9D9C;stop-opacity:0"/>
            <stop offset="1.472829e-002" style="stop-color:#999998;stop-opacity:2.144223e-002"/>
            <stop offset="0.2403" style="stop-color:#646463;stop-opacity:0.3499"/>
            <stop offset="0.4356" style="stop-color:#3D3D3C;stop-opacity:0.6341"/>
            <stop offset="0.5909" style="stop-color:#262624;stop-opacity:0.8603"/>
            <stop offset="0.6869" stop-color="#1D1D1B"/>
          </linearGradient>
          <path fill="url(#SVGID_11_)" d="M420.3 149.4c6.2 4.1 10.7 7.7 10.7 7.7l-51.3 13 -48.6-11.9c0 0 12.5-8.1 19.6-10.6C365.9 142.2 406.9 140.6 420.3 149.4z"/>
        </g>
        <g>
          <path fill="none" d="M420.4 148.1c6.2 4.1 10.7 9.1 10.7 9.1l-51.3 13 -48.6-11.9c0 0 12.6-9.4 19.6-11.9C365.9 140.9 406.9 139.3 420.4 148.1z"/>
        </g>
        <g>
          <path fill="none" d="M420.4 148.1c6.2 4.1 10.7 9.1 10.7 9.1l-51.3 13 -48.6-11.9c0 0 12.6-9.4 19.6-11.9C365.9 140.9 406.9 139.3 420.4 148.1z"/>
        </g>
        <g>
          <path fill="#FFFFFF" d="M379.7 170.2c-2.1-0.3-4.1-0.7-6.2-1.1 -2-0.4-4.1-0.8-6.1-1.2 -2-0.4-4.1-0.9-6.1-1.3 -2-0.4-4.1-0.9-6.1-1.4 -1-0.2-2-0.5-3-0.8l-3-0.8 -6-1.6 -12.1-3.2 0 0c-0.3-0.1-0.6-0.4-0.5-0.8 0-0.2 0.1-0.3 0.3-0.4 3.2-2.2 6.3-4.4 9.7-6.3 1.7-1 3.3-1.9 5-2.8 0.4-0.2 0.9-0.4 1.3-0.6 0.4-0.2 0.9-0.4 1.3-0.6l1.3-0.6 1.4-0.5 0.1 0.2 -1.3 0.6 -1.3 0.6c-0.4 0.2-0.8 0.5-1.3 0.7 -0.4 0.2-0.8 0.5-1.2 0.7 -1.7 1-3.3 2-4.8 3.1 -3.2 2.1-6.3 4.4-9.3 6.7l-0.2-1.2 12.2 2.8 6.1 1.4 3 0.7c1 0.2 2 0.5 3 0.7 2 0.5 4 1 6.1 1.6 2 0.5 4 1.1 6 1.7 2 0.6 4 1.2 6 1.8 2 0.6 4 1.2 6 1.9L379.7 170.2z"/>
        </g>
      </g>
      <path fill="none" stroke="#1D1D1B" stroke-width="2" stroke-linejoin="round" stroke-miterlimit="10" d="M436.3 158.2c0 0 52 29.6 64.5 47.8"/>
      <line fill="none" stroke="#1D1D1B" stroke-width="2" stroke-linejoin="round" stroke-miterlimit="10" x1="431" y1="269.8" x2="492.9" y2="258.7"/>
      <path fill="none" stroke="#1D1D1B" stroke-width="2" stroke-linejoin="round" stroke-miterlimit="10" d="M324 159c0 0-48.3 26.9-56.6 41"/>
      <line fill="none" stroke="#1D1D1B" stroke-width="2" stroke-linejoin="round" stroke-miterlimit="10" x1="263.9" y1="251" x2="318.4" y2="268.5"/>
      <path fill="none" stroke="#1D1D1B" stroke-width="2" stroke-linejoin="round" stroke-miterlimit="10" d="M231.2 297.1c0 0-2.1 43.5 19 78.7"/>
      <line fill="none" stroke="#1D1D1B" stroke-width="2" stroke-linejoin="round" stroke-miterlimit="10" x1="340.3" y1="335.4" x2="298.6" y2="397.3"/>
      <line fill="none" stroke="#1D1D1B" stroke-width="2" stroke-linejoin="round" stroke-miterlimit="10" x1="410.8" y1="335.4" x2="448" y2="395.3"/>
      <path fill="none" stroke="#1D1D1B" stroke-width="2" stroke-linejoin="round" stroke-miterlimit="10" d="M334.2 441.4c0 0 43.7 10.6 81.6 2.8"/>
      <path fill="none" stroke="#1D1D1B" stroke-width="2" stroke-linejoin="round" stroke-miterlimit="10" d="M532.4 312.3c0 0-13.1 48.3-24.8 65"/>
      <radialGradient id="SVGID_12_" cx="257.4406" cy="24.4248" r="83.0538" gradientTransform="matrix(0.342 -0.9397 0.6578 0.2394 194.47 497.5797)" gradientUnits="userSpaceOnUse">
        <stop offset="0.3009" stop-color="#F6F6F6"/>
        <stop offset="1" style="stop-color:#F6F6F6;stop-opacity:0"/>
      </radialGradient>
      <path fill="url(#SVGID_12_)" d="M233.9 241.3c-15.8 50.6 0.3 100.6 36 111.8 35.7 11.2 77.5-20.8 93.3-71.4 15.8-50.6-0.3-100.6-36-111.8C291.5 158.8 249.8 190.7 233.9 241.3z"/>
      <g>
        <linearGradient id="SVGID_13_" gradientUnits="userSpaceOnUse" x1="322.3016" y1="268.7613" x2="396.5928" y2="295.801">
          <stop offset="0" stop-color="#DADADA"/>
          <stop offset="0.2132" stop-color="#D7D7D7"/>
          <stop offset="0.3846" stop-color="#CDCDCD"/>
          <stop offset="0.5415" stop-color="#BCBCBC"/>
          <stop offset="0.6896" stop-color="#A4A4A4"/>
          <stop offset="0.8317" stop-color="#868685"/>
          <stop offset="0.9674" stop-color="#616160"/>
          <stop offset="1" stop-color="#575756"/>
        </linearGradient>
        <path fill="url(#SVGID_13_)" d="M365.2 326.2c0-28.8 18.1-54.2 45.6-69.4l-35.4-25.7L321.8 270l20.5 63h23.2C365.3 330.8 365.2 328.5 365.2 326.2z"/>
      </g>
    </g>
    <linearGradient id="SVGID_14_" gradientUnits="userSpaceOnUse" x1="233.8152" y1="496.5675" x2="865.558" y2="385.1742">
      <stop offset="0.2464" stop-color="#E8F0DE"/>
      <stop offset="0.5043" stop-color="#E6EDDC"/>
      <stop offset="0.669" stop-color="#DEE5D6"/>
      <stop offset="0.8077" stop-color="#D1D6CC"/>
      <stop offset="0.9311" stop-color="#BFC1BD"/>
      <stop offset="1" stop-color="#B2B2B2"/>
    </linearGradient>
    <path clip-path="url(#SVGID_2_)" fill="url(#SVGID_14_)" d="M836.4 315.4c-11.6-16.7-27.1-29-42.3-42.2 -15.5-13.5-29.6-29.4-30.8-50.9 -1.1-19.6 12.6-33.6 24.7-47 11.2-12.4 19.9-25.6 21.2-42.6 2.5-33.1-43.5-36.1-65.1-45.9 -7.2-3.3-43.6-15.9-39.2-28.1 1.4-4 2.9-5.9 6.3-8 6.4-3.8 23.2-6.8 30-9.8 21.3-9.5 62.9-24.3 53.6-55.2 -1.6-5.4-10.1-3.1-8.5 2.3 5.5 18.5-15.8 29.3-29.3 36 -16.1 8-45.4 13.3-59 25.4 -14.5 12.9 9.7 26.9 21.7 34.5 13.2 8.4 27.9 14.6 42.9 19 13 3.8 32.3 7.2 37.1 22 5.7 17.6-9.7 35.4-20.5 47.2 -10.8 11.9-21.8 24.5-24 41 -0.5 4-0.7 7.9-0.4 11.6 -3.7-5.6-8.8-10.5-13.9-14.4 -24-18.2-54.7-27.2-83-36.1 -12.7-4-29.6-8.9-36.2-21.7 -6.8-13.3 6.4-27.9 15.3-36.2C649 104.9 662 94.8 674 83.5c7.9-7.4 19.8-18 20.5-29.7 1-15.5-18.8-21-30.6-23.3 -19.3-3.7-39.4-3.4-59-2.8 -12.9 0.3-25.7 0.7-38.5-0.3 -8-0.6-16.7-1.5-24.1-4.9 -8.4-3.9-3.2-10.1 1.7-15.1 4-4-2.2-10.2-6.2-6.2 -2.9 2.9-5.7 6.3-7.4 10 -6.3-7.4-40.5-19.8-49-21.4 -5.5-1-7.9 7.5-2.3 8.5 9.3 1.7 44.3 14.6 47.4 24.3 3.2 10-9.3 18.3-15.9 23.3 -12.5 9.4-25.9 17.9-37.9 28 -4.1 3.5-8.5 8-11 12.8 0.1-7.2-3.1-14.4-11.3-21 -10.7-8.7-49.2-19.9-41.1-38.4 6.3-7.4 12.5-14.7 18.7-22.2 3.6-4.3-2.6-10.6-6.2-6.2 -5.3 6.4-10.7 12.8-16 19.1 -0.8 0.3-1.6 0.8-2.2 1.7 -0.8 1.1-1.4 2.1-1.9 3.2 -10.8 12.7-21.6 25.4-32.4 38.2 -1.6-0.3-3.3 0.2-4.4 1.9 -4.2 6.4-8.6 12.8-12.8 19.2 -12 15-24 30.1-37.2 44.1 -33.7 35.5-71.6 66.2-91.1 112.5 -17.8 42.3-20.5 88.7-11.7 133.5 9.5 48.4 42.3 85.7 71.9 123.1 17.1 21.6 33.6 43.7 50.7 65.3 6.7 10.4 14.3 20.4 22.6 29.5 2.8 3.1 5.9 6 9.1 8.8 13 15.1 26.3 29.9 39.2 45.1 39.5 46.7 79.8 98.4 96.1 158.4 0.7 2.7 3.2 3.5 5.3 2.9 0.1 9.5 2.3 18.7 8 27.4 3.1 4.7 10.7 0.3 7.6-4.4 -15.4-23.3-0.1-47.8 2.6-72.4 0.5-4.2 0.5-8.3 0.2-12.2 8 22.8 13.5 46.6 19.6 70.3 1.4 5.5 9.9 3.2 8.5-2.3 -6.6-25.6-12-51.5-21.2-76.3 -7.1-19.1-17.2-37-28.2-54.1 -20.7-32.2-45.7-62.3-57.3-99.4 -6.5-20.7-7.5-42.3-5.1-63.7 2-17.6 5.3-35.4 4-53.2 6.5 10 15.3 19 23 27 6.5 6.9 13.2 13.7 19.6 20.8 8.3 9.3 14.9 20.3 21.7 30.7 14.5 22.2 28.1 44.9 41.5 67.8 12 20.5 23.6 25.3 31 65.1 5.5 29.8-4.1 60.2-3.7 90.2 0.2 18.4 1.2 52.8 25.6 55.4 5.6 0.6 5.6-8.2 0-8.8 -11.5-1.2-14.1-17.4-15.5-26.5 -2.3-15.2-1.6-31-0.8-46.3 0.6-12.1 1.9-24.3 2-36.4 0.1-21.1-0.9-42-8.8-61.4 -8.9-21.9-25.9-41.8-37.9-62.1 -13.5-22.6-27.1-45.8-42.9-66.8 -11.6-15.4-26.5-28.2-38.9-43 -6.3-7.5-12.1-15.8-15.3-25.1 -3.4-10-0.5-21 2.1-30.8 6-22.3 17-42.9 25.9-64 8.2-19.5 16-39.6 22.2-59.8 5.9-19.4 9.5-41.1 2.1-60.6 -6-15.8-22.4-25.1-37.2-31.2 -17.1-7.1-35.7-10.8-53.4-15.9 -9.2-2.6-19.3-5.7-15.9-17.2 3.2-11 16.3-18.7 25-24.9 13.4-9.4 36-26.6 42.9-44.5 0.5 3.1 2.2 6.1 5.6 8.9 5.6 4.6 13.5 6.3 20.4 7.8 10.3 2.3 20.3 4.9 30.3 8.3 11.8 3.9 23.4 8 35.4 11.1 10.8 2.8 21.9 3.5 32.7 6.5 8 2.2 17.5 7.4 20.2 15.9 1.9 6-3.4 11.5-7.3 15.2 -22.7 21.3-55.7 22.9-81.9 36.9 -38.4 20.6 8.8 64.2 27.3 80.4 17.5 15.3 36.8 28.4 54.2 43.8 15.7 13.8 28.7 28.7 29.1 50.5 0.3 18.9-8.2 37.3-16.6 53.7 -8.7 17-18.9 33.1-27.6 50 -18.4 35.4-21.5 78-14.6 116.9 2.4 13.7 6.9 27 13.6 39.2 7.1 12.9 18.5 21.7 30.6 29.5 13.7 8.9 26.8 17.5 35.1 32 7 12.3 10.5 33 12.8 43.9 6.5 31.1 5.7 63.6 0.8 94.1 -0.9 5.5 7.6 7.9 8.5 2.3 2.1-13.3 4.4-27.1 5.5-41 2.6 7.2 5.8 14.2 9.9 21 2.9 4.8 10.5 0.4 7.6-4.4 -29.3-48.4-11.3-103.7 1.1-154.4 12-49.3 26.7-98 20.9-149.3 -2.6-23-10.7-41-24.6-59.3 -13.7-18.1-40.5-34.9-44.7-57.9 -4.6-24.8 22.6-44.8 38.3-61.4 15.8-16.7 34-30.9 50.1-47.2 11.8-12 25.9-26.8 27.8-44.4 10.9 22.9 35.9 38.9 54 57.3 15.7 15.9 27.9 34.9 31.6 57.1 4 23.7-4.5 47.2-17.7 66.4 -24.4 35.4-62.9 58.4-92 89.4 -8.7 9.3-16.4 20-19.5 32.6 -3.4 14 2.7 26.3 9.5 38.1 15.6 27.4 37.5 50.5 54.5 76.8 18.4 28.5 26.2 59.5 24.2 93.3 -2.2 36.3-14.5 72.8-33.1 103.9 -2.9 4.9 4.7 9.3 7.6 4.4 23-38.6 36.7-85 34.4-130.1 -2.2-43.1-24.8-76.9-50.2-110 -12.6-16.5-25.1-33.1-34.7-51.6 -10.9-21.1 2.1-39.6 16.7-54.7 29.2-30.2 65.4-53.2 90.1-87.7C860.8 395.1 861 350.8 836.4 315.4zM242.9 220c15-25.9 36.8-46.5 58-67.3 10.8-10.6 20.8-21.5 30.6-32.7 -0.5 1.3-0.9 2.6-1.4 3.9 -3.9 11.9-6.5 27.6 7.8 32.7 13.7 4.8 40.5 1.6 40.9 22 0.2 11.8-9.4 22.3-17.1 30.2 -20 20.6-44.4 36.2-64.8 56.4 -14.7 14.5-29 34.2-23.5 55.3 -1.8-1.8-3.8-3.5-5.8-5.1 -13.9-11.4-31.9-21.3-50.3-19.2C220.4 269.3 229.4 243.4 242.9 220zM298.2 499.5c-16.1-20.8-33.6-40.6-48.3-62.5 -26.5-39.5-37.1-85-33.5-132 22-4.1 47.3 14.6 59.8 31.3 13.2 17.6 15.5 41.5 16.7 62.7 1.2 22 1.4 43.8 5.1 65.6 3.2 18.8 8.5 37.1 15.5 54.8C308.5 512.8 303.4 506.1 298.2 499.5zM510 782.8c-0.9 3.4-1.6 6.7-2.1 10.1 -20.2-66.2-65.7-120.1-111.2-172.3 4.8 3 9.5 6 14.1 9.2 21 14.2 40.4 30 58.3 48 8 8.1 15.8 16.4 23.7 24.6 7.3 7.5 14.4 15 19.3 24.3C521.5 744.5 514.7 764.6 510 782.8zM445.9 604.6c15.4 35.2 41.3 64.7 60.6 97.6 0.9 1.5 1.7 3 2.5 4.5 -0.5-0.6-1.1-1.3-1.6-1.9 -31.2-35.5-66.3-66-106-91.8 -12.2-8-23.3-16-33.4-25.5 -6.6-7.7-13.1-15.5-19.4-23.2 -2.2-2.7-4.3-5.4-6.5-8.2 -11.4-17.8-20.2-37.2-26.7-57.3 -7.6-23.5-11.6-48-12.7-72.6 -1-20.7-0.8-41.2-5.1-61.6 -1.2-5.8-3-11.4-5.2-16.6 4.9 4.3 10.1 8.1 15.2 11.6 19 13.2 40.6 22.2 61.2 32.4 20.7 10.3 42.7 22.5 56.7 41.5 11.5 15.7 12.5 34.7 10.9 53.3 -1.7 21.2-5.9 41.9-4.6 63.3C433.1 569.1 438.3 587.3 445.9 604.6zM413.9 194.3c18.2 5.4 37 8.9 54 17.8 45.6 23.6 19.2 80.5 5.5 116.3 -7.9 20.7-17.3 40.6-25.7 61.1 -5.5 13.4-11.7 29.1-12 44.3 -15.4-25.6-46.1-41.2-72.5-54.1 -21.2-10.3-42.8-20.1-61.3-35 -10.6-8.6-21-19.6-21.2-34.1 -0.3-25 28.6-45.9 45.7-60 19.6-16.3 44-32.1 56.5-55 2.1-3.9 3.6-8.2 4.2-12.5C393.8 189.3 405.4 191.7 413.9 194.3zM441.7 108.5c-6.9 7.8-15.2 14.9-23.5 21.1 -11.9 8.7-30.3 18.8-35 34.2 -0.9-1.2-1.9-2.4-3.1-3.5 -11.8-10.6-29.2-6.3-42.1-13.4 -3.7-2-1.9-9.6-1.4-12.6 1.5-9 5.4-17.6 9.5-25.7 4-7.7 8.6-15 13.5-22.1 1.2-1.5 2.5-3 3.7-4.5 12.2-14.9 24.7-29.6 37.1-44.2 2.1 6.1 7.2 11.6 13.2 16.2 11.9 8.9 38.7 14.9 39.7 32.3C453.8 94.7 446.8 102.8 441.7 108.5zM594.9 134c-9-4.5-19.4-5.8-29.2-7.3 -12.2-2-24-5.7-35.8-9.6 -10.6-3.6-21.2-7.3-32.1-10.1 -8.6-2.2-17.8-3-25.7-7.4 -13.2-7.4 12.4-24.1 17.9-28 9.9-7.1 19.8-13.9 29.4-21.5 7.6-5.9 14.3-12.6 15.8-21.5 7.6 5.5 19.5 6.4 28.1 7.2 22.5 2.2 45.2-0.1 67.7 0.4 14.9 0.3 30.5 1.1 44.5 6.5 4.4 1.7 9 4.5 10.2 9.3 1.2 4.8-5.2 11.6-7.8 14.7 -10.5 12.5-23.8 22.8-36.1 33.4 -10.3 8.8-21.2 17.4-26.9 30 -3.7 8.3-4.2 15.4-2.5 21.5C609.6 143.8 601.8 137.4 594.9 134zM741.3 265.8c-13.8 19.1-32.9 34.2-50.1 50 -15.7 14.4-42.2 29.9-51.1 49.5 -8.4 18.4-6.5 39.6 3.3 57.2 15 26.8 42.7 30.1 58.7 77.6 12.2 36.4 2.5 77.4-6 114 -8.5 36.3-19.2 72.1-26 108.8 -1.3 6.8-2.2 13.5-2.8 20.3 0-0.1 0-0.3-0.1-0.4 -4.1-18.1-7.2-37.5-19-52.5 -13.4-17-33.8-24.7-49.4-39.1 -16.8-15.5-22.6-41.2-25.1-63 -2.6-22.6-1-45.9 4.2-68.1 8.3-36 34.2-65.8 48.2-99.7 6.5-15.7 10.2-32.5 7.6-49.5 -2.9-19.1-16.9-33.2-30.6-45.6 -17.2-15.6-36.6-28.7-54.2-43.8 -8.6-7.3-16.6-15.3-23.9-23.9 -6.7-7.8-15.4-18-15.8-28.8 -0.6-16 28-20.4 38.7-24 12.8-4.3 25.5-9.4 37.5-15.8 10.8-5.8 22.7-13.5 27.3-25.4 1.4-3.6 1.4-7 0.6-10.3 5.8 15.7 26.8 24.4 44.2 29.8 28.4 8.9 61.5 17.9 83.8 38.8C755.8 235.7 752.1 250.8 741.3 265.8z"/>
  </g>
</svg>
