<svg xmlns="http://www.w3.org/2000/svg" xmlns:xlink="http://www.w3.org/1999/xlink" x="0px" y="0px" viewBox="0 0 459.9 672.1" enable-background="new 0 0 459.9 672.1" xml:space="preserve">
  <g>
    <g>
      <rect x="-105.2" y="107.4" transform="matrix(-1.192256e-003 1 -1 -1.192256e-003 566.2914 106.4945)" fill="#79A53A" width="670.3" height="457.3"/>
      <g>
        <rect x="-92.8" y="122.9" transform="matrix(-1.192256e-003 1 -1 -1.192256e-003 566.2994 108.8827)" fill="#658B36" stroke="#F1F1F0" stroke-width="1.4896" stroke-miterlimit="10" width="643.2" height="428.8"/>
        <g>
          <rect x="210.3" y="-179.9" transform="matrix(-1.192256e-003 1 -1 -1.192256e-003 263.9119 -194.5883)" fill="#79A53A" width="37.7" height="428.8"/>
          <rect x="210.2" y="-108.1" transform="matrix(-1.192256e-003 1 -1 -1.192256e-003 335.5871 -122.6562)" fill="#79A53A" width="37.7" height="428.8"/>
          <rect x="210.1" y="-36.4" transform="matrix(-1.192256e-003 1 -1 -1.192256e-003 407.2615 -50.725)" fill="#79A53A" width="37.7" height="428.8"/>
          <rect x="210" y="35.4" transform="matrix(-1.192256e-003 1 -1 -1.192256e-003 478.9363 21.2067)" fill="#79A53A" width="37.7" height="428.8"/>
          <rect x="209.9" y="107.1" transform="matrix(-1.192256e-003 1 -1 -1.192256e-003 550.6115 93.1386)" fill="#79A53A" width="37.7" height="428.8"/>
          <rect x="209.9" y="178.9" transform="matrix(-1.192256e-003 1 -1 -1.192256e-003 622.2858 165.0697)" fill="#79A53A" width="37.7" height="428.8"/>
          <rect x="209.8" y="250.7" transform="matrix(-1.192256e-003 1 -1 -1.192256e-003 693.9608 237.0015)" fill="#79A53A" width="37.7" height="428.8"/>
          <rect x="209.7" y="322.4" transform="matrix(-1.192256e-003 1 -1 -1.192256e-003 765.6362 308.9338)" fill="#79A53A" width="37.7" height="428.8"/>
          <rect x="209.6" y="394.2" transform="matrix(-1.192256e-003 1 -1 -1.192256e-003 837.3118 380.8661)" fill="#79A53A" width="37.7" height="428.8"/>
        </g>
      </g>
      <g>
        <path fill="#F1F1F0" d="M445 14.4l-77.9-0.1 -68.3-0.1 -139.5-0.2L91.1 14l-77.8-0.1 -0.8 646.2 77.8 0.1 68.3 0.1 139.5 0.2 68.3 0.1 77.9 0.1L445 14.4zM430.3 657.6c0-1.8 0.4-5.1 2.6-7.9 1.9-2.3 4.7-3.7 8.4-4.2l0 12.1L430.3 657.6zM232.8 335.8c-0.6-1.7-2.2-2.9-4.1-2.9 -1.9 0-3.5 1.2-4.1 2.8l-58.3-0.1c0.8-33.7 28.5-60.8 62.4-60.8 33.9 0 61.5 27.2 62.2 60.9L232.8 335.8zM224.7 338.7c0.6 1.7 2.2 2.9 4.1 2.9s3.5-1.2 4.1-2.8l58.3 0.1c-0.8 33.7-28.5 60.8-62.4 60.8 -33.9 0-61.5-27.2-62.2-60.9L224.7 338.7zM442 29.5c-3.7-0.5-6.6-1.9-8.4-4.2 -2.2-2.7-2.6-6.1-2.6-7.9l11 0L442 29.5zM295.9 17.2l0 40.3 -133.6-0.2 0-40.3L295.9 17.2zM159.3 60.3l139.5 0.2 0.1-43.2 65.3 0.1 -0.1 108.8 -79.8-0.1 -110.5-0.1L94 125.8 94.1 17l65.3 0.1L159.3 60.3zM278.5 129c-11.8 15.3-30.1 24.4-49.5 24.3 -19.4 0-37.6-9.1-49.4-24.5L278.5 129zM91 128.7l84.9 0.1c12.2 17.2 32 27.4 53.1 27.4 21.1 0 40.9-10.2 53.2-27.3l84.9 0.1 0.1-111.8 60.9 0.1c0 2.3 0.5 6.3 3.2 9.8 2.4 3 6 4.8 10.7 5.4L441.7 336l-147.6-0.2c-0.8-35.3-29.7-63.9-65.2-63.9 -35.5 0-64.5 28.4-65.4 63.8l-147.6-0.2L16.2 32c4.7-0.6 8.3-2.4 10.8-5.3 2.8-3.4 3.2-7.5 3.3-9.8L91.1 17 91 128.7zM27.3 16.9c0 1.8-0.4 5.1-2.6 7.9 -1.9 2.3-4.7 3.7-8.4 4.2l0-12.1L27.3 16.9zM15.5 645c3.7 0.5 6.6 1.9 8.4 4.2 2.2 2.7 2.6 6.1 2.6 7.9l-11 0L15.5 645zM161.6 657.3l0-40.3 133.6 0.2 0 40.3L161.6 657.3zM298.2 614.2L158.7 614l-0.1 43.2 -65.3-0.1 0.1-108.8 79.8 0.1 110.5 0.1 79.8 0.1 -0.1 108.8 -65.3-0.1L298.2 614.2zM179.1 545.5c11.8-15.3 30.1-24.4 49.5-24.3 19.4 0 37.6 9.1 49.4 24.5L179.1 545.5zM366.6 545.8l-84.9-0.1c-12.2-17.2-32-27.4-53.1-27.4 -21.1 0-40.9 10.2-53.2 27.3l-84.9-0.1 -0.1 111.8 -60.9-0.1c0-2.2-0.4-6.3-3.2-9.8 -2.4-3-6-4.8-10.7-5.4l0.4-303.5 147.6 0.2c0.8 35.3 29.7 63.9 65.2 63.9 35.5 0 64.5-28.4 65.4-63.8l147.6 0.2 -0.4 303.5c-4.7 0.6-8.3 2.4-10.8 5.3 -2.8 3.4-3.2 7.5-3.3 9.8l-60.9-0.1L366.6 545.8z"/>
        <circle fill="#F1F1F0" cx="228.5" cy="582.3" r="4.5"/>
        <circle fill="#F1F1F0" cx="229.1" cy="92.2" r="4.5"/>
      </g>
      <rect x="226" y="-22.1" transform="matrix(-1.192256e-003 1 -1 -1.192256e-003 241.9274 -216.6534)" fill="none" stroke="#F1F1F0" stroke-width="2.1688" stroke-miterlimit="10" width="6.3" height="69.2"/>
      <rect x="225.2" y="627.4" transform="matrix(-1.192256e-003 1 -1 -1.192256e-003 890.6727 434.4163)" fill="none" stroke="#F1F1F0" stroke-width="2.1688" stroke-miterlimit="10" width="6.3" height="69.2"/>
      <linearGradient id="SVGID_1_" gradientUnits="userSpaceOnUse" x1="-105.2055" y1="336.0568" x2="565.1268" y2="336.0568" gradientTransform="matrix(-1.192200e-003 1 -1 -1.192200e-003 566.2945 106.4945)">
        <stop offset="0" stop-color="#666565"/>
        <stop offset="0.2008" stop-color="#A1A0A0"/>
        <stop offset="0.5" stop-color="#FFFFFF"/>
        <stop offset="0.7095" stop-color="#B9B9B9"/>
        <stop offset="0.9065" stop-color="#7D7C7C"/>
        <stop offset="1" stop-color="#666565"/>
      </linearGradient>
      <polygon opacity="0.4" fill="url(#SVGID_1_)" points="0.9 671 1.7 0.6 459 1.2 458.2 671.5 "/>
    </g>
  </g>
</svg>
