<svg xmlns="http://www.w3.org/2000/svg" xmlns:xlink="http://www.w3.org/1999/xlink" x="0px" y="0px" viewBox="0 0 670.3 457.3" enable-background="new 0 0 670.3 457.3" xml:space="preserve">
  <g>
    <g>
      <rect x="0" y="0" fill="#79A53A" width="670.3" height="457.3"/>
      <g>
        <rect x="14.8" y="15.4" fill="#658B36" stroke="#F1F1F0" stroke-width="1.4896" stroke-miterlimit="10" width="643.2" height="428.8"/>
        <g>
          <rect x="14.8" y="15.4" fill="#79A53A" width="37.7" height="428.8"/>
          <rect x="86.5" y="15.4" fill="#79A53A" width="37.7" height="428.8"/>
          <rect x="158.3" y="15.4" fill="#79A53A" width="37.7" height="428.8"/>
          <rect x="230.1" y="15.4" fill="#79A53A" width="37.7" height="428.8"/>
          <rect x="301.8" y="15.4" fill="#79A53A" width="37.7" height="428.8"/>
          <rect x="373.6" y="15.4" fill="#79A53A" width="37.7" height="428.8"/>
          <rect x="445.3" y="15.4" fill="#79A53A" width="37.7" height="428.8"/>
          <rect x="517.1" y="15.4" fill="#79A53A" width="37.7" height="428.8"/>
          <rect x="588.9" y="15.4" fill="#79A53A" width="37.7" height="428.8"/>
        </g>
      </g>
      <g>
        <path fill="#F1F1F0" d="M13.3 14v77.9 68.3 139.5 68.3 77.8h646.2v-77.8 -68.3V160.1 91.8 14H13.3zM656.5 27.9c-1.8 0-5.1-0.4-7.9-2.6 -2.3-1.9-3.7-4.7-4.2-8.4h12.1V27.9zM334.9 225.8c-1.7 0.6-2.9 2.2-2.9 4.1 0 1.9 1.2 3.5 2.9 4.1v58.3c-33.7-0.8-60.9-28.4-60.9-62.3 0-33.9 27.2-61.5 60.9-62.3V225.8zM337.9 233.9c1.7-0.6 2.8-2.2 2.8-4.1 0-1.9-1.2-3.5-2.8-4.1v-58.3c33.7 0.8 60.9 28.4 60.9 62.3 0 33.9-27.2 61.5-60.9 62.3V233.9zM28.4 16.9c-0.5 3.7-1.9 6.6-4.2 8.4 -2.7 2.2-6.1 2.6-7.9 2.6v-11H28.4zM16.3 163.1h40.3v133.6H16.3V163.1zM59.5 299.6V160.1H16.3V94.8H125v79.8 110.5 79.8H16.3v-65.3H59.5zM128 180.4c15.3 11.8 24.4 30 24.4 49.4 0 19.4-9.1 37.7-24.4 49.4V180.4zM128 367.9V283c17.1-12.3 27.4-32.1 27.4-53.1 0-21.1-10.2-40.9-27.4-53.1V91.8H16.3V30.9c2.3 0 6.3-0.5 9.8-3.2 3-2.4 4.8-6 5.4-10.7h303.5v147.6c-35.3 0.8-63.8 29.8-63.8 65.3 0 35.5 28.5 64.5 63.8 65.3v147.6H31.4C30.8 438 29 434.4 26 432c-3.4-2.8-7.5-3.2-9.8-3.2v-60.9H128zM16.3 431.7c1.8 0 5.1 0.4 7.9 2.6 2.3 1.9 3.7 4.7 4.2 8.4H16.3V431.7zM644.4 442.8c0.5-3.7 1.9-6.6 4.2-8.4 2.7-2.2 6.1-2.6 7.9-2.6v11H644.4zM656.5 296.6h-40.3V163.1h40.3V296.6zM613.2 160.1v139.5h43.2v65.3H547.7v-79.8V174.6 94.8h108.8v65.3H613.2zM544.7 279.3c-15.3-11.8-24.4-30-24.4-49.4 0-19.4 9.1-37.7 24.4-49.4V279.3zM544.7 91.8v84.9c-17.1 12.3-27.4 32.1-27.4 53.1 0 21.1 10.2 40.9 27.4 53.1v84.9h111.8v60.9c-2.2 0-6.3 0.5-9.8 3.2 -3 2.4-4.8 6-5.4 10.7H337.9V295.1c35.3-0.8 63.8-29.8 63.8-65.3 0-35.5-28.5-64.5-63.8-65.3V16.9h303.5c0.6 4.7 2.4 8.3 5.4 10.7 3.4 2.8 7.5 3.2 9.8 3.2v60.9H544.7z"/>
        <circle fill="#F1F1F0" cx="581.4" cy="229.8" r="4.5"/>
        <circle fill="#F1F1F0" cx="91.3" cy="229.8" r="4.5"/>
      </g>
      <rect x="8.4" y="195.2" fill="none" stroke="#F1F1F0" stroke-width="2.1688" stroke-miterlimit="10" width="6.3" height="69.2"/>
      <rect x="658" y="195.2" fill="none" stroke="#F1F1F0" stroke-width="2.1688" stroke-miterlimit="10" width="6.3" height="69.2"/>
      <linearGradient id="SVGID_1_" gradientUnits="userSpaceOnUse" x1="1.376837e-006" y1="228.659" x2="670.336" y2="228.659">
        <stop offset="0" stop-color="#666565"/>
        <stop offset="0.2008" stop-color="#A1A0A0"/>
        <stop offset="0.5" stop-color="#FFFFFF"/>
        <stop offset="0.7095" stop-color="#B9B9B9"/>
        <stop offset="0.9065" stop-color="#7D7C7C"/>
        <stop offset="1" stop-color="#666565"/>
      </linearGradient>
      <rect x="0" y="0" opacity="0.4" fill="url(#SVGID_1_)" width="670.3" height="457.3"/>
    </g>
  </g>
</svg>
